<svg width="59" height="14" viewBox="0 0 59 14" fill="none" xmlns="http://www.w3.org/2000/svg">
<path d="M24.7387 13.7617V4.40572H24.6778L20.8458 13.7617H19.384L15.5398 4.40572H15.4789V13.7617H13.6812V1.04926H15.9627L20.0766 11.1795H20.1479L24.2532 1.04926H26.5433V13.7617H24.7387ZM36.4818 13.7617H34.658V12.194H34.6145C34.1029 13.3041 33.1614 13.9287 31.7431 13.9287C29.7262 13.9287 28.4924 12.6168 28.4924 10.4922V4.49272H30.3962V10.1216C30.3962 11.531 31.0662 12.2879 32.3783 12.2879C33.7531 12.2879 34.5815 11.3361 34.5815 9.89194V4.49272H36.4853L36.4818 13.7617ZM41.6973 4.32568C43.8552 4.32568 45.2561 5.52454 45.3187 7.23322H43.5298C43.4236 6.33538 42.7641 5.77162 41.6973 5.77162C40.6671 5.77162 39.9797 6.27448 39.9797 7.01398C39.9797 7.59514 40.4026 7.99186 41.4067 8.22154L42.9137 8.56432C44.8088 9.00454 45.531 9.74404 45.531 11.0838C45.531 12.7751 43.9544 13.9374 41.7687 13.9374C39.4507 13.9374 38.0585 12.8012 37.8827 11.0386H39.7691C39.9449 12.0078 40.6062 12.4828 41.7687 12.4828C42.9137 12.4828 43.6185 12.0078 43.6185 11.2491C43.6185 10.6506 43.2757 10.2974 42.2611 10.0677L40.7541 9.7162C38.9912 9.31078 38.1194 8.46514 38.1194 7.11664C38.1194 5.4619 39.5655 4.32568 41.6973 4.32568ZM46.8606 2.05324C46.8484 1.4425 47.3339 0.937898 47.9448 0.925718C48.5556 0.913538 49.0602 1.399 49.0724 2.00974C49.0846 2.62048 48.5991 3.12508 47.9883 3.13726C47.9796 3.13726 47.9709 3.13726 47.9622 3.13726C47.3583 3.14074 46.8658 2.65702 46.8606 2.05324ZM47.0103 4.49272H48.9141V13.76H47.0103V4.49272ZM56.947 7.68214C56.7538 6.69556 56.0125 5.91082 54.7717 5.91082C53.2995 5.91082 52.3319 7.13578 52.3319 9.12634C52.3319 11.1621 53.3099 12.3419 54.7909 12.3419C55.962 12.3419 56.7295 11.6981 56.9487 10.6245H58.7812C58.5776 12.5976 57.001 13.9374 54.7717 13.9374C52.1196 13.9374 50.3933 12.1226 50.3933 9.12808C50.3933 6.18574 52.1196 4.32742 54.7543 4.32742C57.1419 4.32742 58.595 5.86036 58.7638 7.68388L56.947 7.68214ZM7.63738 2.28988C8.15249 1.67392 8.4083 0.882218 8.35087 0.0800781C7.56081 0.154898 6.82991 0.532478 6.31306 1.13452C5.87104 1.64434 5.48122 2.47606 5.58216 3.25906C6.36352 3.32692 7.14489 2.86756 7.63738 2.28988ZM8.34043 3.41044C7.2058 3.34258 6.23997 4.05424 5.69875 4.05424C5.1558 4.05424 4.32571 3.4435 3.42948 3.4609C2.2409 3.49048 1.15847 4.1482 0.584195 5.18872C-0.635712 7.29064 0.262251 10.4087 1.44909 12.1191C2.02511 12.9665 2.71947 13.8992 3.63309 13.8644C4.49799 13.8313 4.8356 13.3041 5.8867 13.3041C6.93606 13.3041 7.2406 13.8644 8.15597 13.847C9.1044 13.8296 9.69782 12.9996 10.2738 12.1522C10.6828 11.5519 11.0013 10.8959 11.2223 10.2034C11.2049 10.186 9.39328 9.49174 9.37587 7.40722C9.35847 5.662 10.7994 4.83202 10.8655 4.77982C10.0528 3.58096 8.78245 3.44524 8.34043 3.41044Z" fill="black"/>
</svg>
