<svg width="18" height="48" viewBox="0 0 18 48" fill="none" xmlns="http://www.w3.org/2000/svg">
<path d="M13.9574 16.9268H12.8221C12.7317 15.9757 12.29 15.0924 11.5832 14.4495C10.8764 13.8066 9.95531 13.4504 8.99988 13.4504C8.04446 13.4504 7.12335 13.8066 6.41655 14.4495C5.70974 15.0924 5.26802 15.9757 5.17768 16.9268H4.04238C3.35308 16.9276 2.69225 17.2018 2.20484 17.6893C1.71743 18.1767 1.44323 18.8375 1.44238 19.5268V28.45C1.44323 29.1393 1.71743 29.8001 2.20484 30.2875C2.69225 30.775 3.35308 31.0492 4.04238 31.05H13.9574C14.6467 31.0492 15.3075 30.775 15.7949 30.2875C16.2823 29.8001 16.5565 29.1393 16.5574 28.45V19.5269C16.5566 18.8376 16.2824 18.1767 15.795 17.6893C15.3075 17.2019 14.6467 16.9276 13.9574 16.9268ZM8.99988 14.65C9.63727 14.652 10.2527 14.883 10.734 15.3009C11.2153 15.7187 11.5305 16.2956 11.622 16.9264H6.37778C6.46929 16.2956 6.78442 15.7187 7.26573 15.3009C7.74705 14.883 8.36249 14.652 8.99988 14.65ZM15.3573 28.45C15.3569 28.8212 15.2093 29.1771 14.9468 29.4395C14.6844 29.702 14.3285 29.8496 13.9573 29.85H4.04238C3.67119 29.8496 3.31531 29.702 3.05284 29.4395C2.79037 29.1771 2.64275 28.8212 2.64238 28.45V19.5269C2.64275 19.1557 2.79037 18.7998 3.05284 18.5374C3.31531 18.2749 3.67119 18.1273 4.04238 18.1269H13.9574C14.3286 18.1273 14.6845 18.2749 14.9469 18.5374C15.2094 18.7998 15.357 19.1557 15.3574 19.5269L15.3573 28.45Z" fill="black" fill-opacity="0.8"/>
</svg>
