<svg width="41" height="10" viewBox="0 0 41 10" fill="none" xmlns="http://www.w3.org/2000/svg">
<path d="M17.1922 9.83448V3.33503H17.1499L14.4877 9.83448H13.4721L10.8015 3.33503H10.7592V9.83448H9.5103V1.00335H11.0953L13.9533 8.0407H14.0029L16.8549 1.00335H18.4459V9.83448H17.1922ZM25.3504 9.83448H24.0834V8.7454H24.0532C23.6977 9.51658 23.0437 9.95052 22.0584 9.95052C20.6571 9.95052 19.8 9.03912 19.8 7.56324V3.39547H21.1226V7.30577C21.1226 8.28486 21.5881 8.81067 22.4996 8.81067C23.4547 8.81067 24.0302 8.14948 24.0302 7.14622V3.39547H25.3528L25.3504 9.83448ZM28.9738 3.27943C30.4729 3.27943 31.4461 4.11226 31.4897 5.29925H30.2468C30.1731 4.67553 29.7149 4.2839 28.9738 4.2839C28.258 4.2839 27.7805 4.63323 27.7805 5.14695C27.7805 5.55067 28.0743 5.82626 28.7719 5.98582L29.8188 6.22394C31.1354 6.52976 31.6371 7.04348 31.6371 7.97421C31.6371 9.14912 30.5418 9.95656 29.0233 9.95656C27.413 9.95656 26.4458 9.16725 26.3237 7.94279H27.6342C27.7563 8.61606 28.2157 8.94605 29.0233 8.94605C29.8188 8.94605 30.3085 8.61606 30.3085 8.08905C30.3085 7.67323 30.0703 7.42786 29.3655 7.2683L28.3185 7.02414C27.0938 6.7425 26.4881 6.15504 26.4881 5.21826C26.4881 4.06874 27.4927 3.27943 28.9738 3.27943ZM32.5608 1.7008C32.5523 1.27653 32.8897 0.925992 33.314 0.917531C33.7384 0.909069 34.089 1.24631 34.0974 1.67058C34.1059 2.09485 33.7686 2.44539 33.3442 2.45385C33.3382 2.45385 33.3321 2.45385 33.3261 2.45385C32.9066 2.45627 32.5644 2.12024 32.5608 1.7008ZM32.6648 3.39547H33.9874V9.83327H32.6648V3.39547ZM39.5681 5.61111C39.4339 4.92575 38.9189 4.3806 38.0569 4.3806C37.0341 4.3806 36.3619 5.23156 36.3619 6.61437C36.3619 8.02861 37.0413 8.84814 38.0702 8.84814C38.8838 8.84814 39.417 8.4009 39.5693 7.6551H40.8424C40.7009 9.02583 39.6056 9.95656 38.0569 9.95656C36.2144 9.95656 35.0151 8.69584 35.0151 6.61558C35.0151 4.57158 36.2144 3.28064 38.0448 3.28064C39.7035 3.28064 40.713 4.34555 40.8303 5.61232L39.5681 5.61111ZM5.3115 1.86519C5.66936 1.43729 5.84708 0.887312 5.80718 0.330078C5.2583 0.382054 4.75053 0.644353 4.39146 1.06258C4.08438 1.41674 3.81357 1.99453 3.88369 2.53846C4.42652 2.58561 4.96936 2.2665 5.3115 1.86519ZM5.79993 2.64363C5.01167 2.59648 4.34068 3.09086 3.96469 3.09086C3.58749 3.09086 3.0108 2.66659 2.38817 2.67868C1.56244 2.69923 0.810447 3.15614 0.411482 3.87897C-0.436016 5.33914 0.18782 7.50522 1.01235 8.69342C1.41252 9.28208 1.89491 9.92997 2.52962 9.9058C3.13049 9.88283 3.36503 9.51658 4.09526 9.51658C4.82428 9.51658 5.03585 9.9058 5.67178 9.89371C6.33067 9.88162 6.74294 9.30505 7.14311 8.71639C7.42722 8.29937 7.64847 7.84367 7.80201 7.36259C7.78992 7.3505 6.53136 6.86821 6.51927 5.42013C6.50718 4.20775 7.50822 3.63117 7.55417 3.59491C6.98957 2.76208 6.10701 2.6678 5.79993 2.64363Z" fill="black"/>
</svg>
